name Walk1.mot
datacolumns 19
datarows 10
range 2.61400000 2.62300000
endheader

                time	   L_ground_force_vx	   L_ground_force_vy	   L_ground_force_vz	   L_ground_force_px	   L_ground_force_py	   L_ground_force_pz	   R_ground_force_vx	   R_ground_force_vy	   R_ground_force_vz	   R_ground_force_px	   R_ground_force_py	   R_ground_force_pz	   L_ground_torque_x	   L_ground_torque_y	   L_ground_torque_z	   R_ground_torque_x	   R_ground_torque_y	   R_ground_torque_z	
          2.61400000	         31.98001506	        121.96395223	         20.52075474	          0.70893889	          0.00000000	          0.14356880	          0.00000000	          0.00000000	          0.00000000	          0.00000000	          0.00000000	          0.00000000	          0.00000000	         -4.97643144	          0.00000000	          0.00000000	          0.00000000	          0.00000000	
          2.61500000	         30.23511914	        116.38283229	         19.85844966	          0.70733121	          0.00000000	          0.14391020	          0.00000000	          0.00000000	          0.00000000	          0.00000000	          0.00000000	          0.00000000	          0.00000000	         -4.62573868	          0.00000000	          0.00000000	          0.00000000	          0.00000000	
          2.61600000	         28.53403013	        110.89424659	         19.14794931	          0.70539912	          0.00000000	          0.14439655	          0.00000000	          0.00000000	          0.00000000	          0.00000000	          0.00000000	          0.00000000	          0.00000000	         -4.28365358	          0.00000000	          0.00000000	          0.00000000	          0.00000000	
          2.61700000	         26.85845471	        105.51613725	         18.38487100	          0.70323479	          0.00000000	          0.14494662	          0.00000000	          0.00000000	          0.00000000	          0.00000000	          0.00000000	          0.00000000	          0.00000000	         -3.95729795	          0.00000000	          0.00000000	          0.00000000	          0.00000000	
          2.61800000	         25.18951498	        100.26979505	         17.57063231	          0.70091115	          0.00000000	          0.14553037	          0.00000000	          0.00000000	          0.00000000	          0.00000000	          0.00000000	          0.00000000	          0.00000000	         -3.65412303	          0.00000000	          0.00000000	          0.00000000	          0.00000000	
          2.61900000	         23.52795306	         95.15479702	         16.72304560	          0.69850932	          0.00000000	          0.14614601	          0.00000000	          0.00000000	          0.00000000	          0.00000000	          0.00000000	          0.00000000	          0.00000000	         -3.37027678	          0.00000000	          0.00000000	          0.00000000	          0.00000000	
          2.62000000	         21.88766866	         90.17669488	         15.87209417	          0.69618990	          0.00000000	          0.14679871	          0.00000000	          0.00000000	          0.00000000	          0.00000000	          0.00000000	          0.00000000	          0.00000000	         -3.09196824	          0.00000000	          0.00000000	          0.00000000	          0.00000000	
          2.62100000	         20.28176777	         85.36669906	         15.04086349	          0.69406041	          0.00000000	          0.14750243	          0.00000000	          0.00000000	          0.00000000	          0.00000000	          0.00000000	          0.00000000	          0.00000000	         -2.80836652	          0.00000000	          0.00000000	          0.00000000	          0.00000000	
          2.62200000	         18.71224135	         80.75665565	         14.23727215	          0.69203479	          0.00000000	          0.14824223	          0.00000000	          0.00000000	          0.00000000	          0.00000000	          0.00000000	          0.00000000	          0.00000000	         -2.52051190	          0.00000000	          0.00000000	          0.00000000	          0.00000000	
          2.62300000	         17.17786974	         76.34523432	         13.45828785	          0.68994093	          0.00000000	          0.14895422	          0.00000000	          0.00000000	          0.00000000	          0.00000000	          0.00000000	          0.00000000	          0.00000000	         -2.23666925	          0.00000000	          0.00000000	          0.00000000	          0.00000000	
